<?xml version="1.0" standalone="no"?>
<!DOCTYPE svg PUBLIC "-//W3C//DTD SVG 20010904//EN"
 "http://www.w3.org/TR/2001/REC-SVG-20010904/DTD/svg10.dtd">
<svg version="1.0" xmlns="http://www.w3.org/2000/svg"
 width="512.000000pt" height="512.000000pt" viewBox="0 0 512.000000 512.000000"
 preserveAspectRatio="xMidYMid meet">
<metadata>
Created by potrace 1.14, written by Peter Selinger 2001-2017
</metadata>
<g transform="translate(0.000000,512.000000) scale(0.100000,-0.100000)"
fill="#000000" stroke="none">
<path d="M2369 5116 c-2 -2 -31 -6 -64 -9 -100 -10 -220 -29 -228 -37 -4 -3
-8 -323 -8 -709 l0 -702 -27 21 c-15 12 -99 76 -187 141 -88 66 -173 130 -190
143 -16 13 -59 46 -95 73 -36 27 -130 99 -210 159 -80 61 -209 159 -287 218
-104 79 -147 106 -161 102 -30 -10 -249 -232 -340 -344 -122 -152 -204 -278
-296 -456 l-37 -70 23 -20 c13 -12 46 -39 73 -61 28 -22 55 -44 61 -50 6 -5
48 -39 94 -75 46 -36 102 -81 125 -100 22 -19 58 -48 79 -65 21 -16 44 -35 50
-40 9 -8 219 -176 276 -222 8 -6 44 -35 80 -65 36 -29 88 -71 115 -93 28 -22
52 -42 55 -45 3 -3 48 -39 100 -80 94 -74 106 -84 165 -134 17 -14 34 -26 38
-26 5 0 7 -9 5 -19 -2 -13 -200 -160 -563 -420 -308 -219 -615 -439 -683 -487
-67 -48 -122 -92 -122 -97 0 -5 29 -67 64 -137 75 -151 182 -317 292 -455 79
-99 266 -293 309 -321 22 -14 36 -5 306 192 156 114 316 230 354 259 39 29
149 109 245 179 96 69 180 129 185 134 6 4 31 22 57 40 l47 32 0 -592 c0 -326
1 -648 1 -715 0 -68 3 -122 8 -121 6 1 69 -7 132 -18 70 -12 193 -19 355 -19
153 0 227 4 350 19 20 3 113 18 128 22 4 1 12 2 17 3 7 1 10 242 10 701 l0
701 43 -31 c23 -17 124 -91 223 -163 100 -73 194 -142 210 -154 16 -12 108
-79 204 -149 210 -152 249 -181 364 -267 49 -37 96 -67 105 -67 23 0 202 176
318 313 101 119 224 310 309 478 l67 132 -28 21 c-15 12 -47 35 -71 51 -67 48
-454 323 -589 421 -180 129 -255 182 -280 198 -16 11 -35 24 -41 30 -7 6 -93
69 -193 139 -113 80 -181 135 -181 145 0 9 37 46 82 82 45 36 136 109 202 163
147 119 141 114 196 157 25 19 50 40 55 46 6 6 30 26 55 45 25 18 47 36 50 39
3 3 95 78 205 166 110 88 268 215 351 283 l152 121 -40 77 c-99 192 -227 380
-363 532 -52 59 -195 199 -241 237 l-44 37 -158 -119 c-86 -66 -159 -121 -162
-124 -3 -3 -50 -39 -105 -80 -55 -41 -107 -80 -115 -87 -8 -7 -60 -46 -115
-87 -55 -41 -104 -79 -110 -84 -5 -4 -73 -55 -150 -113 -152 -113 -170 -127
-191 -147 -12 -11 -14 93 -14 679 0 381 -1 694 -3 696 -5 4 -95 21 -154 28
-26 4 -59 9 -73 11 -28 6 -466 15 -471 10z"/>
<path d="M2029 4963 c-13 -16 -12 -17 4 -4 9 7 17 15 17 17 0 8 -8 3 -21 -13z"/>
<path d="M2029 643 c-13 -16 -12 -17 4 -4 16 13 21 21 13 21 -2 0 -10 -8 -17
-17z"/>
</g>
</svg>
